# xmcd
#
# Track frame offsets: 
#        150
#        20228
#        73775
#        101943
#        110689
#        130884
#        152774
#        180426
#        209013
#        232225
#
# Disc length: 3516 seconds
#
# Revision: 0
# Processed by: cddbd v1.5.1PL2 Copyright (c) Steve Scherf et al.
# Submitted via: ExactAudioCopy v0.95a5
#
DISCID=9a0dba0a
DTITLE=Featuring Eric Clapton Disc 1 - Buddy Guy
DYEAR=2002
DGENRE=Blues
TTITLE0=Sweet home Chicago
TTITLE1=Play the blues
TTITLE2=Key To The Highway (vocals Eric Clapton)
TTITLE3=Walking The Dog
TTITLE4=Stormy Monday 1
TTITLE5=Real Mother For Ya
TTITLE6=Stormy Monday 2
TTITLE7=Jam
TTITLE8=Worried Life Blues 1 (vocals Eric Clapton)
TTITLE9=Worried Life Blues 2 (vocals Eric Clapton)
EXTD=
EXTT0=
EXTT1=
EXTT2=
EXTT3=
EXTT4=
EXTT5=
EXTT6=
EXTT7=
EXTT8=
EXTT9=
PLAYORDER=
